<svg
   xmlns:dc="http://purl.org/dc/elements/1.1/"
   xmlns:cc="http://creativecommons.org/ns#"
   xmlns:rdf="http://www.w3.org/1999/02/22-rdf-syntax-ns#"
   xmlns:svg="http://www.w3.org/2000/svg"
   xmlns="http://www.w3.org/2000/svg"
   version="1.1"
   id="svg23"
   width="640"
   height="640"
   viewBox="0 0 640 640">
  <metadata
     id="metadata29">
    <rdf:RDF>
      <cc:Work
         rdf:about="">
        <dc:format>image/svg+xml</dc:format>
        <dc:type
           rdf:resource="http://purl.org/dc/dcmitype/StillImage" />
        <dc:title></dc:title>
      </cc:Work>
    </rdf:RDF>
  </metadata>
  <defs
     id="defs27" />
  <g
     id="layer1" />
  <g
     id="g31">
    <g
       id="g866"
       transform="matrix(2.5121227,0,0,2.5121227,-472.92284,-528.41107)">
      <path
         id="path35"
         d="m 314.58678,286.65704 h -11.09472 l -62.53968,101.91439 h 12.85714 l 26.8254,-41.90476 h 70 l 24.60318,41.74603 h 15.07936 l -28.09524,-45.07937 c 0,0 20.79365,-5.23809 20.63492,-27.14285 -0.15873,-21.90477 -12.53968,-29.52381 -43.80952,-29.52381 h -21.5873 l 3.8e-4,46.74333 h 13.1746 l -3.8e-4,-35.31476 h 16.50794 c 0,0 22.53968,-2.06349 22.22222,18.25397 -0.31746,20.31746 -19.84127,19.52381 -28.4127,19.68254 -8.57143,0.15873 -53.80952,0 -53.80952,0 l 23.49206,-38.09524 h 3.97029 z"
         style="fill:#f57754;fill-opacity:1;stroke:#f57754;stroke-width:1px;stroke-linecap:butt;stroke-linejoin:miter;stroke-opacity:1" />
      <path
         id="path39"
         d="m 317.41238,349.50237 v 39.29412 h 13.1881 l -0.007,-39.31085 z"
         style="fill:#f57754;fill-opacity:1;stroke:#f57754;stroke-width:1px;stroke-linecap:butt;stroke-linejoin:miter;stroke-opacity:1" />
    </g>
  </g>
</svg>